<svg xmlns="http://www.w3.org/2000/svg" viewBox="0 0 24 24">
  <g transform="translate(-0.83,21.94) scale(0.0258,-0.0258)">
    <path d="M138 612C145 613 150 613 154 613C156 613 163 613 172 612C252 609 297 607 307 607H347C342 534 342 529 341 456C196 393 109 281 109 158C109 69 163 6 238 6C308 6 384 47 461 127C539 206 593 292 651 427C759 399 816 339 816 253C816 164 753 91 644 53C596 36 553 28 494 26C512 -1 517 -12 526 -41C616 -30 673 -14 730 16C833 70 887 149 887 247C887 364 810 449 672 481C689 528 700 555 703 561L634 582C630 552 622 522 610 492C585 494 573 495 552 495C499 495 455 489 404 475C405 524 405 524 411 609C504 612 656 629 765 649C784 652 787 652 800 654L796 724C720 697 578 676 415 668C422 746 427 780 436 808L358 813C359 806 359 800 359 798C359 791 357 752 356 741C352 690 352 690 351 666C333 665 329 665 326 665C234 665 181 669 139 681ZM341 393C341 272 347 199 361 122C316 86 283 71 246 71C203 71 174 107 174 162C174 212 196 265 235 311C263 343 292 366 341 393ZM415 164C415 169 415 174 415 175C415 181 415 183 414 189C405 272 404 289 403 418C449 433 496 441 542 441C553 441 558 441 590 439C544 334 502 264 437 189C429 181 428 179 418 163Z"/>
  </g>
</svg>
