<svg xmlns="http://www.w3.org/2000/svg" viewBox="0 0 24 24">
  <g transform="translate(-0.07,20.92) scale(0.0238,-0.0238)">
    <path d="M425 765C387 765 361 766 334 770V702C359 706 379 707 423 707C434 604 447 543 475 464C510 365 550 290 605 216C530 131 417 53 276 -11C297 -29 307 -42 321 -65C387 -33 443 1 515 53C561 86 581 105 643 168C669 135 705 99 745 63C802 13 851 -21 927 -62C940 -33 950 -18 969 3C846 60 769 118 684 215C724 267 773 350 802 418C841 506 877 627 894 726C900 757 900 757 903 769C877 766 855 765 824 765ZM828 707C797 567 771 491 721 391C695 338 673 301 645 264C594 335 555 408 527 487C503 555 491 617 482 707ZM45 523C120 482 171 445 232 386L271 445C201 502 160 531 84 575ZM92 769C159 728 211 686 270 626L311 679C258 730 204 771 134 814ZM235 297C179 171 107 54 54 7L111 -48C112 -45 127 -24 153 15C194 75 245 167 285 255Z"/>
  </g>
</svg>
